<?xml version="1.0" standalone="no"?><!DOCTYPE svg PUBLIC "-//W3C//DTD SVG 1.1//EN" "http://www.w3.org/Graphics/SVG/1.1/DTD/svg11.dtd"><svg t="1769776975361" class="icon" viewBox="0 0 1024 1024" version="1.1" xmlns="http://www.w3.org/2000/svg" p-id="7244" xmlns:xlink="http://www.w3.org/1999/xlink" width="200" height="200"><path d="M106.794667 441.088h58.410666s0.853333 173.824-40.661333 191.573333l-31.317333-57.472s18.645333-57.813333 13.568-134.101333z m189.610666 0h58.453334c-5.077333 76.288 13.568 134.101333 13.568 134.101333L337.066667 632.661333c-41.514667-17.749333-40.661333-191.573333-40.661334-191.573333z m-131.2 174.805333h36.821334V364.757333h57.173333v255.232s-1.578667 42.794667-38.997333 42.794667h-18.602667s-36.394667-3.84-36.394667-46.933333z m271.445334-122.282666h-38.058667c-27.093333-1.109333-10.154667-34.474667-10.154667-34.474667l46.848-94.378667h54.741334l-39.338667 75.093334a5.418667 5.418667 0 0 0 4.821333 7.850666h3.626667l3.242667-6.613333h54.741333l-47.232 92.586667a5.418667 5.418667 0 0 0 4.821333 7.893333h31.573334l-25.301334 45.909333H417.792c-27.093333-1.152-10.154667-34.474667-10.154667-34.474666l29.013334-59.392z m-41.386667 108.373333c4.693333 4.650667 11.648 4.010667 11.648 4.010667h74.496l-30.037333 57.002666H381.098667c-9.557333 0-14.165333-6.357333-14.165334-6.357333l28.330667-54.698667z m260.138667-160.896h-36.096v166.741333h54.741333v54.954667h-192.64l27.264-54.954667h54.186667v-166.741333h-36.693334V382.848h129.237334v58.24z m130.389333-1.450667h20.053333a8.704 8.704 0 0 1 8.704 8.704v35.669334h-28.757333v-44.373334z m92.416 44.373334h-6.613333v-37.674667c0-35.242667-28.586667-63.786667-63.786667-63.786667h-22.016v-17.792h-55.893333v17.792h-35.072v57.088h35.114666v44.373334h-55.893333v57.088h55.893333v121.685333h55.893334v-121.685333h76.885333a13.696 13.696 0 0 1 13.653333 13.738666v59.946667h-53.290666c0 26.538667 21.461333 48 47.957333 48h14.421333c26.453333 0 47.957333-21.461333 47.957334-48v-75.52c0-30.506667-24.746667-55.253333-55.210667-55.253333z m26.666667-101.162667a27.733333 27.733333 0 0 1 0 55.381333h-27.648v-27.733333c0-15.232 12.373333-27.648 27.648-27.648z" p-id="7245"></path></svg>